<?xml version="1.0" ?><!DOCTYPE svg  PUBLIC '-//W3C//DTD SVG 1.1//EN'  'http://www.w3.org/Graphics/SVG/1.1/DTD/svg11.dtd'><svg height="100mm" style="shape-rendering:geometricPrecision; text-rendering:geometricPrecision; image-rendering:optimizeQuality; fill-rule:evenodd; clip-rule:evenodd" viewBox="0 0 100 100" width="100mm" xml:space="preserve" xmlns="http://www.w3.org/2000/svg" xmlns:xlink="http://www.w3.org/1999/xlink"><defs><style type="text/css">
   <![CDATA[
    .fil0 {fill:#008DD2}
   ]]>
  </style></defs><g id="Ebene_x0020_1"><path class="fil0" d="M51.1326 46.9242l0 0c1.5272,0 2.5972,-0.4872 3.2062,-1.4735 0.6068,-0.9762 0.9085,-2.1521 0.9085,-3.5252 0,-0.849 -0.1161,-1.7911 -0.3455,-2.8355 -0.2339,-1.0444 -0.5913,-2.036 -1.0798,-2.9684 -0.4833,-0.9323 -1.1082,-1.7092 -1.8647,-2.3239 -0.7569,-0.6095 -1.6552,-0.9226 -2.6937,-0.9226 -0.7468,0 -1.4014,0.1461 -1.9626,0.4354 -0.5567,0.2874 -1.016,0.6772 -1.3717,1.1715 -0.361,0.4916 -0.6347,1.0585 -0.8158,1.6976 -0.186,0.6405 -0.2737,1.3035 -0.2737,1.9878 0,0.8433 0.1373,1.7814 0.415,2.8116 0.2794,1.0298 0.6931,1.9865 1.2357,2.8706 0.5412,0.8884 1.2003,1.6197 1.9723,2.2003 0.7751,0.5869 1.6648,0.8743 2.6698,0.8743zm6.8439 14.4788l0 0c0,-0.7809 -0.1701,-1.4935 -0.5173,-2.1424 -0.3415,-0.6449 -0.7623,-1.2202 -1.2641,-1.7234 -0.5027,-0.5027 -1.0697,-0.9717 -1.6888,-1.4111 -0.6206,-0.4393 -1.2313,-0.8544 -1.8208,-1.2539 -0.2197,-0.0354 -0.4594,-0.0597 -0.703,-0.0739 -0.2493,-0.0142 -0.4832,-0.0239 -0.7082,-0.0239 -0.9084,0 -1.8889,0.0978 -2.9431,0.2976 -1.0501,0.1997 -2.0165,0.5271 -2.8948,0.9806 -0.8788,0.4589 -1.6012,1.0599 -2.1778,1.8066 -0.5754,0.7521 -0.8588,1.6844 -0.8588,2.8028 0,1.0825 0.2777,2.0104 0.8344,2.7713 0.5572,0.7724 1.2543,1.3974 2.0844,1.8846 0.8247,0.4832 1.7428,0.8344 2.7389,1.0501 0.9948,0.2153 1.9329,0.3216 2.8116,0.3216 0.8145,0 1.6449,-0.0922 2.4993,-0.2738 0.8544,-0.1798 1.6251,-0.4871 2.308,-0.9123 0.6888,-0.4195 1.2415,-0.9665 1.6654,-1.6353 0.4207,-0.6688 0.6347,-1.4935 0.6347,-2.4652zm-2.1011 -28.3818c1.1463,0.6843 2.0007,1.6508 2.5574,2.8847 0.5612,1.2358 0.8389,2.4954 0.8389,3.7692 0,1.4993 -0.2635,2.6894 -0.7906,3.5778 -0.5271,0.8845 -1.1082,1.641 -1.7469,2.2602 -0.6391,0.6205 -1.2158,1.1875 -1.7331,1.6849 -0.5213,0.5071 -0.7808,1.132 -0.7808,1.8788 0,0.7184 0.3516,1.3716 1.0541,1.9625 0.7029,0.5908 1.474,1.2455 2.324,1.9625 0.8446,0.7184 1.6153,1.5768 2.3182,2.5729 0.7029,0.9948 1.0541,2.2845 1.0541,3.8657 0,1.6251 -0.3995,3.0265 -1.1959,4.1984 -0.8007,1.1719 -1.8053,2.1384 -3.0264,2.9006 -1.2202,0.7552 -2.5777,1.3119 -4.0712,1.6689 -1.4878,0.3614 -2.9387,0.5417 -4.3441,0.5417 -1.0501,0 -2.1782,-0.1222 -3.3838,-0.3716 -1.2043,-0.2494 -2.3222,-0.6489 -3.3524,-1.21 -1.0262,-0.5568 -1.8749,-1.2739 -2.5494,-2.1521 -0.667,-0.8801 -1.0001,-1.9728 -1.0001,-3.282 0,-1.591 0.4491,-2.9188 1.3531,-3.9672 0.8969,-1.0559 2.0108,-1.8948 3.3342,-2.5237 1.3274,-0.6365 2.7514,-1.0798 4.2848,-1.3433 1.5329,-0.2636 2.9201,-0.4097 4.1642,-0.4434 -0.3668,-0.4593 -0.6985,-0.9722 -0.9961,-1.5289 -0.2919,-0.5612 -0.4389,-1.1662 -0.4389,-1.8208 0,-0.3658 0.0478,-0.6931 0.1559,-0.9806 0.1031,-0.2879 0.2152,-0.605 0.3467,-0.9567 -0.259,0.0625 -0.5225,0.0921 -0.806,0.0921 -0.2777,0 -0.5514,0 -0.8247,0 -1.0838,0 -2.1185,-0.1855 -3.1088,-0.5567 -0.9917,-0.3756 -1.8505,-0.9084 -2.5831,-1.5914 -0.737,-0.6883 -1.3278,-1.4988 -1.7712,-2.4298 -0.4491,-0.9323 -0.6688,-1.9723 -0.6688,-3.1243 0,-1.0843 0.1954,-2.1043 0.5953,-3.061 0.4008,-0.962 0.9323,-1.8305 1.6064,-2.6211 0.6688,-0.7906 1.4497,-1.4594 2.3426,-2.0122 0.8925,-0.5514 1.8505,-0.9465 2.8705,-1.1817 1.4058,-0.2918 2.8071,-0.4336 4.2125,-0.4336l9.8366 0 -3.0406 1.7712 -3.0366 0zm-36.8111 47.9146c-17.0852,-17.0854 -17.0852,-44.786 0.0001,-61.8715 17.0854,-17.0851 44.786,-17.0851 61.8714,0 17.0852,17.0854 17.0851,44.786 -0.0001,61.8713 -17.0855,17.0853 -44.786,17.0854 -61.8714,0.0002zm2.2094 -2.2097c-15.8649,-15.8649 -15.8648,-41.5873 0.0003,-57.4523 15.8648,-15.865 41.5872,-15.865 57.452,0 15.8651,15.865 15.8651,41.5873 0.0001,57.4522 -15.8649,15.865 -41.5874,15.8652 -57.4524,0.0001z"/></g></svg>
